<?xml version="1.0" encoding="utf-8"?>
<!-- Generator: Adobe Illustrator 18.1.1, SVG Export Plug-In . SVG Version: 6.00 Build 0)  -->
<svg version="1.1" id="Layer_1" xmlns="http://www.w3.org/2000/svg" xmlns:xlink="http://www.w3.org/1999/xlink" x="0px" y="0px"
	 viewBox="-2063.7 3156.1 3599.8 852.3" enable-background="new -2063.7 3156.1 3599.8 852.3" xml:space="preserve">
<g>
	<path fill="#FF6A0C" d="M-1692.7,3845.9c-8.2,108.9-63.5,162.5-167.9,162.5h-62.6c-104.4,0-149.8-53.6-138.9-162.5l69-682.6h121.6
		l-63.5,677.2c-3.6,34.5,10.9,50.8,43.6,50.8h20c31.8,0,49-16.3,51.7-50.8l59-677.2h121.6L-1692.7,3845.9z"/>
	<path fill="#FF6A0C" d="M-1496.6,4001.2h-128l62.6-837.8h191.5c98.9,0,145.2,49,139.8,149.8l-11.8,218.8
		c-6.4,103.5-59,155.2-161.6,155.2h-71.7L-1496.6,4001.2z M-1397.7,3270.4h-50.8l-19.1,303.2h51.7c31.8,0,47.2-15.4,49.9-49
		l12.7-207C-1352.3,3285.9-1366.8,3270.4-1397.7,3270.4z"/>
	<path fill="#FF6A0C" d="M-1168.9,3163.3h122.5l34.5,582.8l84.4-582.8h117.1l47.2,581.8l70.8-581.8h111.6l-112.6,837.8H-844
		l-39.9-512l-72.6,512h-151.6L-1168.9,3163.3z"/>
	<path fill="#FF6A0C" d="M-303.9,4008.4H-372c-104.4,0-155.2-54.5-154.3-162.5l5.4-541c0.9-99.8,49.9-148.9,148.9-148.9h64.4
		c98.9,0,148.9,49,149.8,148.9l7.3,541C-148.7,3954.9-199.5,4008.4-303.9,4008.4z M-326.6,3264.1H-352c-31.8,0-47.2,15.4-47.2,47.2
		l-0.9,529.2c0,34.5,15.4,50.8,49,50.8h26.3c31.8,0,47.2-16.3,47.2-50.8l-2.7-529.2C-280.3,3278.6-295.7,3264.1-326.6,3264.1z"/>
	<path fill="#FF6A0C" d="M286.1,3706.1l11.8,295H170l-9.1-292.3c-0.9-37.2-18.2-54.5-54.5-54.5H50.1l9.1,346.7h-128l-14.5-837.8
		h200.6c98.9,0,149.8,49,153.4,149.8l6.4,154.3c2.7,73.5-21.8,109.8-66.3,128.9C261.6,3609.9,284.3,3642.6,286.1,3706.1z
		 M100.1,3271.3H40.2l6.4,271.4h56.3c35.4,0,50.8-16.3,49.9-50.8l-5.4-173.4C146.4,3286.8,130.9,3271.3,100.1,3271.3z"/>
	<path fill="#FF6A0C" d="M477.7,4001.2l-36.3-727.1H331.5l-4.5-110.7h340.4l7.3,110.7H564.8l41.8,727.1H477.7z"/>
	<path fill="#FF6A0C" d="M998.7,3505.5l-28.1-343.1h121.6l75.3,837.8h-128l-31.8-379.4H887l29,379.4h-128l-57.2-837.8h121.6
		l26.3,343.1C878.9,3505.5,998.7,3505.5,998.7,3505.5z"/>
	<path fill="#FF6A0C" d="M1419,3163.3h117.1l-71.7,535.6l33.6,303.2h-128l-30-296.8l-187-541.9h125.3l106.2,343.1L1419,3163.3z"/>
</g>
</svg>
